<svg width="47" height="47" fill="none" xmlns="http://www.w3.org/2000/svg"><g clip-path="url(#clip0_216_2243)"><path d="M38.111 10.889V0h-4.666v2.333H13.222V0H8.556v10.889a14.713 14.713 0 006.825 12.444 14.712 14.712 0 00-6.825 12.445v10.889h4.666v-2.334h20.223v2.334h4.666v-10.89a14.712 14.712 0 00-6.825-12.444 14.712 14.712 0 006.825-12.444zm-6.271 5.444H14.827a10.072 10.072 0 01-1.322-3.11h19.657a10.072 10.072 0 01-1.322 3.11zm-1.227 1.556a10.072 10.072 0 01-14.559 0h14.559zm2.832-7c0 .263-.02.52-.04.778H13.26a9.942 9.942 0 01-.04-.778V8.556h20.225v2.333zm0-7V7H13.222V3.889h20.223zM11.667 45.11H10.11v-9.333a13.175 13.175 0 016.824-11.57c.057.028.116.05.173.078.196.092.392.178.59.26a12.602 12.602 0 00.982.367c.072.023.143.053.214.078a11.687 11.687 0 00-7.227 10.787v9.333zm21.778-9.333v2.333H13.222v-2.333c0-.263.02-.52.04-.778h20.145c.018.258.038.515.038.778zm-19.94-2.334a10.044 10.044 0 011.322-3.11H31.84c.613.954 1.06 2.006 1.322 3.11H13.505zm2.55-4.666a10.072 10.072 0 0114.558 0H16.054zm-2.833 14v-3.111h20.223v3.11H13.222zm23.334-7v9.333H35v-9.333c-.007-6.44-5.226-11.66-11.666-11.667a12.892 12.892 0 01-2.914-.326c-.07-.015-.138-.027-.207-.043a13.079 13.079 0 01-2.93-1.1l-.012-.006a13.177 13.177 0 01-7.16-11.747V1.556h1.556v9.333c.007 6.44 5.226 11.66 11.667 11.667.528 0 1.056.03 1.582.092a12.95 12.95 0 013.757 1.033c.118.053.233.113.35.169.118.056.243.113.363.174a13.179 13.179 0 017.17 11.754zm-6.824-13.32c-.059-.028-.119-.05-.177-.077a14.89 14.89 0 00-.587-.26c-.108-.044-.215-.09-.324-.132a14.357 14.357 0 00-.67-.24c-.067-.022-.133-.05-.201-.07A11.686 11.686 0 0035 10.888V1.556h1.556v9.333a13.175 13.175 0 01-6.824 11.57z" fill="url(#paint0_linear_216_2243)"/></g><defs><linearGradient id="paint0_linear_216_2243" x1="28.013" y1="41.983" x2="-5.691" y2="13.786" gradientUnits="userSpaceOnUse"><stop stop-color="#03B0B6"/><stop offset="1" stop-color="#B9DE35"/></linearGradient><clipPath id="clip0_216_2243"><path fill="#fff" d="M0 0h46.667v46.667H0z"/></clipPath></defs></svg>