<svg width="40" height="40" fill="none" xmlns="http://www.w3.org/2000/svg"><path d="M0 20C0 8.954 8.954 0 20 0s20 8.954 20 20-8.954 20-20 20S0 31.046 0 20z" fill="#fff"/><path d="M29 14h-4.125v-.75a2.625 2.625 0 00-2.625-2.625h-4.5a2.625 2.625 0 00-2.625 2.625V14H11a1.875 1.875 0 00-1.875 1.875V26A1.875 1.875 0 0011 27.875h18A1.875 1.875 0 0030.875 26V15.875A1.875 1.875 0 0029 14zm-11.625-.75a.375.375 0 01.375-.375h4.5a.375.375 0 01.375.375V14h-5.25v-.75zm11.25 3v3h-2.25v-.375a1.125 1.125 0 10-2.25 0v.375h-8.25v-.375a1.125 1.125 0 10-2.25 0v.375h-2.25v-3h17.25zm-17.25 9.375V21.5h2.25v.375a1.125 1.125 0 102.25 0V21.5h8.25v.375a1.125 1.125 0 102.25 0V21.5h2.25v4.125h-17.25z" fill="#F84416"/><path d="M29 14h-4.125v-.75a2.625 2.625 0 00-2.625-2.625h-4.5a2.625 2.625 0 00-2.625 2.625V14H11a1.875 1.875 0 00-1.875 1.875V26A1.875 1.875 0 0011 27.875h18A1.875 1.875 0 0030.875 26V15.875A1.875 1.875 0 0029 14zm-11.625-.75a.375.375 0 01.375-.375h4.5a.375.375 0 01.375.375V14h-5.25v-.75zm11.25 3v3h-2.25v-.375a1.125 1.125 0 10-2.25 0v.375h-8.25v-.375a1.125 1.125 0 10-2.25 0v.375h-2.25v-3h17.25zm-17.25 9.375V21.5h2.25v.375a1.125 1.125 0 102.25 0V21.5h8.25v.375a1.125 1.125 0 102.25 0V21.5h2.25v4.125h-17.25z" fill="url(#paint0_linear_150_9150)"/><defs><linearGradient id="paint0_linear_150_9150" x1="37.4" y1="31.469" x2="-14.272" y2="46.797" gradientUnits="userSpaceOnUse"><stop stop-color="#03B0B6"/><stop offset="1" stop-color="#B9DE35"/></linearGradient></defs></svg>