<svg width="129" height="61" fill="none" xmlns="http://www.w3.org/2000/svg"><path d="M29.815 23.292c-8.364 0-15.144 6.778-15.144 15.139v13.05h2.356v-13.05c0-6.994 5.485-12.706 12.39-13.072l2.067-2.067h-1.67z" fill="#162230"/><path d="M13.773 33.664c.3-1.008.694-1.976 1.17-2.895-2.632-4.473-7.493-7.476-13.06-7.476H.214l2.069 2.066c5.243.278 9.665 3.641 11.49 8.305h.001z" fill="url(#paint0_linear_258_233)"/><path d="M3.789 30.197c-.698-1.023-1.147-2.097-1.36-3.213a8.02 8.02 0 01-.147-1.61L.214 23.308A11.243 11.243 0 000 25.348c-.026 2.168.607 4.244 1.899 6.137 2.624 3.846 7.182 6.004 11.17 6.704l.014.002c.011-.777.072-1.542.186-2.29a15.92 15.92 0 01-.502-.102c-3.354-.743-6.955-2.636-8.98-5.603z" fill="url(#paint1_linear_258_233)"/><path d="M31.482 23.29l-2.298 1.443a7.47 7.47 0 01-.459 1.42 7.75 7.75 0 01-1.881 2.576c-2.814 2.723-7.196 3.226-10.678 3.214-.322.648-.582 1.202-.769 1.928l1.503.037c3.704.21 8.219-.762 11.36-3.639 1.547-1.416 2.544-3.13 2.972-5.066.132-.6.227-1.272.25-1.913z" fill="#162230"/><path d="M15.849 2.527a13.03 13.03 0 014.672 7.412c.692-.288 1.407-.53 2.14-.723A15.07 15.07 0 0016.712.607L15.85 0l-.864.607a15.071 15.071 0 00-5.947 8.607 16.57 16.57 0 012.14.722 13.029 13.029 0 014.671-7.41v.001z" fill="url(#paint2_linear_258_233)"/><path d="M13.808 52.373h6.347c.38-.216 1.182-.757 1.348-1.192.207-.544-.596-7.617-1.01-8.757-.415-1.14-4.638-2.305-5.104-2.305-.373 0-1.624 1.969-2.202 2.953v6.114c0 .249.414 2.228.621 3.187z" fill="#fff"/><path d="M22.763 36.451c1.548 0 2.934.309 4.159.926a7.035 7.035 0 012.9 2.672c.708 1.164 1.062 2.59 1.062 4.28 0 2.49-.774 4.438-2.323 5.845-1.497 1.336-3.43 2.004-5.798 2.004-1.559 0-2.95-.304-4.174-.911a7.09 7.09 0 01-2.885-2.656c-.658-1.083-1.006-2.596-1.047-4.54l-.015-1.76c0-1.342.024-2.585.073-3.732l2.305-.243a61.12 61.12 0 011.353-.79c1.637-.73 3.1-1.094 4.39-1.095zm-.319 1.807c-1.66.121-2.93.744-3.81 1.867-.87 1.123-1.316 2.48-1.336 4.068v.061c0 1.609.44 2.99 1.321 4.144.88 1.153 2.16 1.791 3.84 1.913h.653c1.67-.122 2.945-.76 3.826-1.913.88-1.164 1.32-2.535 1.32-4.114 0-1.588-.446-2.96-1.336-4.114-.88-1.153-2.156-1.79-3.825-1.912h-.653z" fill="#162230"/><path d="M22.763 36.451c1.548 0 2.934.309 4.159.926a7.035 7.035 0 012.9 2.672c.708 1.164 1.062 2.59 1.062 4.28 0 2.49-.774 4.438-2.323 5.845-1.497 1.336-3.43 2.004-5.798 2.004-1.559 0-2.95-.304-4.174-.911a7.09 7.09 0 01-2.885-2.656c-.658-1.083-1.006-2.596-1.047-4.54l-.015-1.76c0-1.342.024-2.585.073-3.732l2.305-.243a61.12 61.12 0 011.353-.79c1.637-.73 3.1-1.094 4.39-1.095zm-.319 1.807c-1.66.121-2.93.744-3.81 1.867-.87 1.123-1.316 2.48-1.336 4.068v.061c0 1.609.44 2.99 1.321 4.144.88 1.153 2.16 1.791 3.84 1.913h.653c1.67-.122 2.945-.76 3.826-1.913.88-1.164 1.32-2.535 1.32-4.114 0-1.588-.446-2.96-1.336-4.114-.88-1.153-2.156-1.79-3.825-1.912h-.653z" fill="#0BA360"/><path d="M22.763 36.451c1.548 0 2.934.309 4.159.926a7.035 7.035 0 012.9 2.672c.708 1.164 1.062 2.59 1.062 4.28 0 2.49-.774 4.438-2.323 5.845-1.497 1.336-3.43 2.004-5.798 2.004-1.559 0-2.95-.304-4.174-.911a7.09 7.09 0 01-2.885-2.656c-.658-1.083-1.006-2.596-1.047-4.54l-.015-1.76c0-1.342.024-2.585.073-3.732l2.305-.243a61.12 61.12 0 011.353-.79c1.637-.73 3.1-1.094 4.39-1.095zm-.319 1.807c-1.66.121-2.93.744-3.81 1.867-.87 1.123-1.316 2.48-1.336 4.068v.061c0 1.609.44 2.99 1.321 4.144.88 1.153 2.16 1.791 3.84 1.913h.653c1.67-.122 2.945-.76 3.826-1.913.88-1.164 1.32-2.535 1.32-4.114 0-1.588-.446-2.96-1.336-4.114-.88-1.153-2.156-1.79-3.825-1.912h-.653z" fill="url(#paint3_linear_258_233)"/><path d="M22.763 36.451c1.548 0 2.934.309 4.159.926a7.035 7.035 0 012.9 2.672c.708 1.164 1.062 2.59 1.062 4.28 0 2.49-.774 4.438-2.323 5.845-1.497 1.336-3.43 2.004-5.798 2.004-1.559 0-2.95-.304-4.174-.911a7.09 7.09 0 01-2.885-2.656c-.658-1.083-1.006-2.596-1.047-4.54l-.015-1.76c0-1.342.024-2.585.073-3.732l2.305-.243a61.12 61.12 0 011.353-.79c1.637-.73 3.1-1.094 4.39-1.095zm-.319 1.807c-1.66.121-2.93.744-3.81 1.867-.87 1.123-1.316 2.48-1.336 4.068v.061c0 1.609.44 2.99 1.321 4.144.88 1.153 2.16 1.791 3.84 1.913h.653c1.67-.122 2.945-.76 3.826-1.913.88-1.164 1.32-2.535 1.32-4.114 0-1.588-.446-2.96-1.336-4.114-.88-1.153-2.156-1.79-3.825-1.912h-.653z" fill="url(#paint4_linear_258_233)"/><path d="M22.763 36.451c1.548 0 2.934.309 4.159.926a7.035 7.035 0 012.9 2.672c.708 1.164 1.062 2.59 1.062 4.28 0 2.49-.774 4.438-2.323 5.845-1.497 1.336-3.43 2.004-5.798 2.004-1.559 0-2.95-.304-4.174-.911a7.09 7.09 0 01-2.885-2.656c-.658-1.083-1.006-2.596-1.047-4.54l-.015-1.76c0-1.342.024-2.585.073-3.732l2.305-.243a61.12 61.12 0 011.353-.79c1.637-.73 3.1-1.094 4.39-1.095zm-.319 1.807c-1.66.121-2.93.744-3.81 1.867-.87 1.123-1.316 2.48-1.336 4.068v.061c0 1.609.44 2.99 1.321 4.144.88 1.153 2.16 1.791 3.84 1.913h.653c1.67-.122 2.945-.76 3.826-1.913.88-1.164 1.32-2.535 1.32-4.114 0-1.588-.446-2.96-1.336-4.114-.88-1.153-2.156-1.79-3.825-1.912h-.653z" fill="url(#paint5_linear_258_233)"/><path d="M22.763 36.451c1.548 0 2.934.309 4.159.926a7.035 7.035 0 012.9 2.672c.708 1.164 1.062 2.59 1.062 4.28 0 2.49-.774 4.438-2.323 5.845-1.497 1.336-3.43 2.004-5.798 2.004-1.559 0-2.95-.304-4.174-.911a7.09 7.09 0 01-2.885-2.656c-.658-1.083-1.006-2.596-1.047-4.54l-.015-1.76c0-1.342.024-2.585.073-3.732l2.305-.243a61.12 61.12 0 011.353-.79c1.637-.73 3.1-1.094 4.39-1.095zm-.319 1.807c-1.66.121-2.93.744-3.81 1.867-.87 1.123-1.316 2.48-1.336 4.068v.061c0 1.609.44 2.99 1.321 4.144.88 1.153 2.16 1.791 3.84 1.913h.653c1.67-.122 2.945-.76 3.826-1.913.88-1.164 1.32-2.535 1.32-4.114 0-1.588-.446-2.96-1.336-4.114-.88-1.153-2.156-1.79-3.825-1.912h-.653zM47.406 52.01h-2.55V40.49l-9.73 11.521H32.59V37.498h2.55V49.02l9.73-11.522h2.535V52.01zm10.171.623c-1.568 0-2.965-.309-4.19-.926a7.09 7.09 0 01-2.883-2.657c-.699-1.153-1.048-2.555-1.048-4.205 0-2.58.794-4.574 2.383-5.98 1.508-1.316 3.416-1.974 5.723-1.974 1.548 0 2.935.309 4.16.926a7.035 7.035 0 012.899 2.672c.718 1.164 1.077 2.59 1.077 4.28 0 2.49-.779 4.438-2.337 5.845-1.508 1.346-3.436 2.019-5.784 2.019zm.334-1.852c1.67-.122 2.945-.76 3.825-1.913.88-1.154 1.321-2.525 1.321-4.114 0-1.588-.44-2.96-1.32-4.113-.88-1.154-2.166-1.792-3.856-1.913h-.623c-1.68.121-2.96.759-3.84 1.913-.88 1.153-1.32 2.525-1.32 4.113 0 1.59.44 2.96 1.32 4.114.88 1.154 2.16 1.791 3.84 1.913h.653zm27.674 1.23h-2.55v-11.22l-5.648 8.137h-1.943l-5.631-8.137V52.01h-2.55V37.498h2.868l6.285 9.169 6.3-9.169h2.869V52.01zm10.277.622c-.79 0-1.579-.081-2.368-.243a7.965 7.965 0 01-2.095-.699 6.954 6.954 0 01-2.884-2.656c-.698-1.164-1.048-2.56-1.048-4.19 0-.495.066-1.098.198-1.806.131-.718.283-1.29.455-1.715.425-.992 1.007-1.812 1.746-2.46a7.593 7.593 0 012.596-1.487 9.594 9.594 0 013.111-.5c1.549 0 2.935.313 4.16.94a7.033 7.033 0 012.899 2.672c.718 1.154 1.078 2.58 1.078 4.28v.046L90.2 46.151c.1 1.305.652 2.383 1.654 3.233 1.012.85 2.156 1.316 3.43 1.397h1.185a5.974 5.974 0 002.58-.76c.8-.445 1.326-.854 1.579-1.229l2.383.926c-.678 1.032-1.836 1.832-3.476 2.398a8.789 8.789 0 01-1.776.38 14.3 14.3 0 01-1.897.137zm-5.784-8.304l10.914-1.077c-.202-1.6-.789-2.738-1.76-3.416-.972-.688-2.08-1.073-3.325-1.154h-.637c-1.447.102-2.677.648-3.689 1.64-1.002.981-1.503 2.317-1.503 4.007zm33.609 11.72h-2.55V52.01h-14.649v4.038h-2.55V50.22h2.565c1.508-3.32 2.262-6.633 2.262-9.943v-2.778h12.038V50.22h2.884v5.83zm-5.419-5.83V39.457h-6.922v.986c0 3.117-.749 6.376-2.247 9.776h9.169zm6.491-13.519v-2.037h.977a.64.64 0 01.298.075.605.605 0 01.337.563.656.656 0 01-.348.588.646.646 0 01-.309.08h-.756v-.28h.662a.365.365 0 00.251-.099c.076-.068.113-.164.113-.29 0-.128-.037-.22-.113-.275a.395.395 0 00-.243-.083h-.513V36.7h-.356zm1.187-.947l.507.947h-.397l-.494-.947h.384zm-.439 2.161a2.18 2.18 0 01-.859-.17 2.221 2.221 0 01-1.178-1.18 2.161 2.161 0 01-.171-.858c0-.305.057-.591.171-.858a2.221 2.221 0 011.178-1.178c.267-.115.553-.172.859-.172.305 0 .591.057.858.172a2.225 2.225 0 011.179 1.178c.114.267.171.553.171.858 0 .306-.057.592-.171.859a2.226 2.226 0 01-1.179 1.178 2.16 2.16 0 01-.858.171zm0-.41c.331 0 .632-.082.902-.244.273-.162.49-.378.652-.648.162-.273.242-.575.242-.906 0-.33-.08-.632-.242-.902a1.838 1.838 0 00-.652-.651 1.721 1.721 0 00-.902-.243c-.331 0-.633.08-.906.243a1.85 1.85 0 00-.648.65 1.726 1.726 0 00-.243.903c0 .331.081.633.243.906.162.27.378.486.648.648.273.162.575.243.906.243z" fill="#162230"/><path d="M27.557 12.342c.113.535.188 1.07.234 1.602a13.064 13.064 0 01-2.099 8.285c.92-.234 1.87-.387 2.843-.462a15.063 15.063 0 001.123-9.454c-.06-.298-.128-.594-.208-.891l-.274-1.02-1.052-.087c-8.335-.691-15.652 5.503-16.343 13.835-.022.263-.03.525-.038.786.886.648 1.707 1.38 2.45 2.187a13.098 13.098 0 01-.065-2.779c.578-6.969 6.517-12.208 13.428-12.002z" fill="url(#paint6_linear_258_233)"/><path d="M6.013 22.23a13.063 13.063 0 01-2.104-8.286c.045-.533.12-1.067.234-1.602a13.058 13.058 0 019.135 3.35c.443-.616.926-1.2 1.446-1.75a15.097 15.097 0 00-11.15-3.626l-1.052.087-.274 1.02c-.079.296-.146.593-.207.89a15.061 15.061 0 001.127 9.455c.973.074 1.924.228 2.845.462z" fill="url(#paint7_linear_258_233)"/><defs><linearGradient id="paint0_linear_258_233" x1="14.275" y1="33.679" x2="-.232" y2="19.142" gradientUnits="userSpaceOnUse"><stop stop-color="#03B0B6"/><stop offset="1" stop-color="#B9DE35"/></linearGradient><linearGradient id="paint1_linear_258_233" x1="12.047" y1="38.187" x2="15.429" y2="22.453" gradientUnits="userSpaceOnUse"><stop stop-color="#03B0B6"/><stop offset="1" stop-color="#B9DE35"/></linearGradient><linearGradient id="paint2_linear_258_233" x1="13.938" y1="29.482" x2="21.158" y2="-.799" gradientUnits="userSpaceOnUse"><stop stop-color="#03B0B6"/><stop offset="1" stop-color="#B9DE35"/></linearGradient><linearGradient id="paint3_linear_258_233" x1="27.798" y1="50.482" x2="12.113" y2="35.895" gradientUnits="userSpaceOnUse"><stop stop-color="#069F91"/><stop offset=".736" stop-color="#53D342"/><stop offset="1" stop-color="#A3E21B"/></linearGradient><linearGradient id="paint4_linear_258_233" x1="23.834" y1="29.549" x2="19.093" y2="52.191" gradientUnits="userSpaceOnUse"><stop stop-color="#01DBFF"/><stop offset=".192" stop-color="#059BA5"/><stop offset=".423" stop-color="#0495BD"/><stop offset="1" stop-color="#0288FA"/></linearGradient><linearGradient id="paint5_linear_258_233" x1="25.932" y1="52.191" x2="20.947" y2="24.606" gradientUnits="userSpaceOnUse"><stop stop-color="#069F91"/><stop offset=".649" stop-color="#53D342"/><stop offset="1" stop-color="#A3E21B"/></linearGradient><linearGradient id="paint6_linear_258_233" x1="18.964" y1="29.249" x2="32.921" y2="11.9" gradientUnits="userSpaceOnUse"><stop stop-color="#03B0B6"/><stop offset="1" stop-color="#B9DE35"/></linearGradient><linearGradient id="paint7_linear_258_233" x1="11.451" y1="29.896" x2="10.117" y2="8.611" gradientUnits="userSpaceOnUse"><stop stop-color="#03B0B6"/><stop offset="1" stop-color="#B9DE35"/></linearGradient></defs></svg>