<svg width="97" height="32" viewBox="0 0 97 32" fill="none" xmlns="http://www.w3.org/2000/svg">
<g clip-path="url(#clip0_185_9203)">
<path fill-rule="evenodd" clip-rule="evenodd" d="M6.84219 2.87829C5.69766 3.67858 4.6627 4.62478 3.76426 5.68992C7.4357 5.34906 12.1001 5.90564 17.5155 8.61335C23.2984 11.5047 27.955 11.6025 31.1958 10.9773C30.9018 10.087 30.5315 9.23135 30.093 8.41791C26.3832 8.80919 21.6272 8.29127 16.0845 5.51998C12.5648 3.76014 9.46222 3.03521 6.84219 2.87829ZM27.9259 5.33332C24.9962 2.06 20.7387 0 16 0C14.6084 0 13.2581 0.177686 11.9709 0.511584C13.7143 0.987269 15.5663 1.68319 17.5155 2.65781C21.5736 4.68682 25.0771 5.34013 27.9259 5.33332ZM31.8887 14.1025C27.9735 14.8756 22.567 14.7168 16.0845 11.4755C10.024 8.44527 5.20035 8.48343 1.94712 9.20639C1.7792 9.24367 1.61523 9.28287 1.45523 9.32367C1.0293 10.25 0.689308 11.2241 0.445362 12.2356C0.70591 12.166 0.975145 12.0998 1.25293 12.0381C5.19966 11.161 10.7761 11.1991 17.5155 14.5689C23.5761 17.5991 28.3997 17.561 31.653 16.838C31.7644 16.8133 31.8742 16.7877 31.9822 16.7613C31.9941 16.509 32 16.2552 32 16C32 15.358 31.9622 14.7248 31.8887 14.1025ZM31.4598 20.1378C27.5826 20.8157 22.3336 20.5555 16.0845 17.431C10.024 14.4008 5.20035 14.439 1.94712 15.1619C1.225 15.3223 0.575392 15.5178 0.002344 15.7241C0.000781601 15.8158 0 15.9078 0 16C0 24.8366 7.16344 32 16 32C23.4057 32 29.6362 26.9687 31.4598 20.1378Z" fill="#3B82F6"/>
<path d="M50.6646 12.6037H47.9189C47.8687 12.2519 47.7663 11.9393 47.6117 11.6661C47.4571 11.3888 47.2585 11.1528 47.0161 10.9583C46.7737 10.7637 46.4937 10.6147 46.1761 10.5112C45.8627 10.4077 45.5221 10.356 45.1543 10.356C44.4898 10.356 43.911 10.5195 43.4178 10.8465C42.9247 11.1694 42.5423 11.6413 42.2706 12.2622C41.9989 12.879 41.8631 13.6282 41.8631 14.5099C41.8631 15.4164 41.9989 16.1781 42.2706 16.7949C42.5464 17.4117 42.9309 17.8773 43.4241 18.1919C43.9172 18.5065 44.4877 18.6638 45.1355 18.6638C45.4991 18.6638 45.8355 18.6162 46.1448 18.521C46.4582 18.4258 46.7361 18.2871 46.9785 18.105C47.2209 17.9187 47.4215 17.6931 47.5803 17.4282C47.7433 17.1633 47.8562 16.8611 47.9189 16.5217L50.6646 16.5341C50.5936 17.1178 50.416 17.6807 50.1318 18.223C49.8518 18.7611 49.4735 19.2434 48.9971 19.6697C48.5249 20.0919 47.9607 20.4272 47.3045 20.6756C46.6525 20.9198 45.9149 21.0419 45.0916 21.0419C43.9465 21.0419 42.9226 20.7853 42.0198 20.272C41.1213 19.7587 40.4108 19.0157 39.8884 18.0429C39.3702 17.0702 39.1111 15.8925 39.1111 14.5099C39.1111 13.1232 39.3744 11.9435 39.901 10.9707C40.4275 9.99793 41.1422 9.25697 42.0449 8.74782C42.9476 8.23453 43.9632 7.97789 45.0916 7.97789C45.8355 7.97789 46.5251 8.08137 47.1603 8.28834C47.7998 8.49532 48.366 8.79749 48.8592 9.19488C49.3523 9.58813 49.7536 10.0704 50.0628 10.6416C50.3763 11.2129 50.5769 11.8669 50.6646 12.6037Z" fill="#1A1A1A"/>
<path d="M53.8008 24.4446C53.4622 24.4446 53.1446 24.4176 52.8479 24.3638C52.5553 24.3142 52.313 24.25 52.1207 24.1713L52.7225 22.1968C53.036 22.292 53.3181 22.3438 53.5688 22.3521C53.8238 22.3603 54.0432 22.3024 54.227 22.1782C54.4151 22.054 54.5677 21.8429 54.6847 21.5449L54.8414 21.1413L51.3872 11.3308H54.1957L56.1892 18.3347H56.2895L58.3018 11.3308H61.1291L57.3866 21.8988C57.2069 22.4121 56.9624 22.8591 56.6531 23.24C56.348 23.6249 55.9614 23.9209 55.4934 24.1279C55.0253 24.339 54.4611 24.4446 53.8008 24.4446Z" fill="#1A1A1A"/>
<path d="M67.1442 11.3308V13.3178H61.2013V11.3308H67.1442ZM62.5617 20.8681V10.6416C62.5617 9.95033 62.6975 9.37701 62.9691 8.92168C63.245 8.46634 63.6211 8.12484 64.0975 7.89717C64.574 7.6695 65.1152 7.55566 65.7212 7.55566C66.1307 7.55566 66.5048 7.58671 66.8433 7.6488C67.186 7.71089 67.4409 7.76678 67.6081 7.81645L67.1317 9.80338C67.0272 9.77026 66.8976 9.73922 66.743 9.71024C66.5925 9.68126 66.4379 9.66678 66.2791 9.66678C65.8862 9.66678 65.6125 9.75784 65.4579 9.93998C65.3032 10.118 65.2259 10.3684 65.2259 10.6913V20.8681H62.5617Z" fill="#1A1A1A"/>
<path d="M74.4209 16.8073V11.3308H77.0915V20.8681H74.5275V19.1357H74.4272C74.2099 19.6946 73.8484 20.1437 73.3427 20.4831C72.8412 20.8225 72.2289 20.9923 71.5059 20.9923C70.8623 20.9923 70.296 20.8474 69.807 20.5576C69.3181 20.2679 68.9357 19.856 68.6598 19.322C68.3882 18.788 68.2503 18.1485 68.2461 17.4034V11.3308H70.9166V16.9315C70.9208 17.4944 71.0734 17.9394 71.3743 18.2664C71.6752 18.5935 72.0785 18.757 72.5842 18.757C72.906 18.757 73.2069 18.6845 73.4869 18.5396C73.7669 18.3906 73.9926 18.1712 74.1639 17.8815C74.3394 17.5917 74.4251 17.2337 74.4209 16.8073Z" fill="#1A1A1A"/>
<path d="M86.7096 14.0504L84.2648 14.1995C84.223 13.9925 84.1331 13.8062 83.9952 13.6406C83.8573 13.4709 83.6755 13.3364 83.4498 13.237C83.2283 13.1336 82.9629 13.0818 82.6537 13.0818C82.2399 13.0818 81.891 13.1687 81.6068 13.3426C81.3226 13.5123 81.1805 13.74 81.1805 14.0256C81.1805 14.2533 81.2724 14.4458 81.4563 14.6031C81.6402 14.7603 81.9557 14.8866 82.4029 14.9818L84.1457 15.3295C85.0818 15.5199 85.7797 15.8263 86.2395 16.2485C86.6992 16.6707 86.929 17.2254 86.929 17.9125C86.929 18.5376 86.7431 19.0861 86.3711 19.558C86.0033 20.0298 85.4977 20.3983 84.854 20.6632C84.2146 20.924 83.477 21.0544 82.6411 21.0544C81.3665 21.0544 80.3509 20.7915 79.5945 20.2658C78.8422 19.7359 78.4013 19.0157 78.2717 18.105L80.8984 17.9684C80.9778 18.3534 81.17 18.6473 81.4751 18.8501C81.7802 19.0488 82.171 19.1481 82.6474 19.1481C83.1155 19.1481 83.4916 19.0591 83.7758 18.8812C84.0642 18.699 84.2104 18.4651 84.2146 18.1795C84.2104 17.9394 84.108 17.7428 83.9074 17.5897C83.7068 17.4324 83.3976 17.3123 82.9796 17.2295L81.3121 16.9004C80.3718 16.7142 79.6718 16.3913 79.2121 15.9318C78.7565 15.4723 78.5287 14.8866 78.5287 14.1746C78.5287 13.562 78.6959 13.0342 79.0303 12.5913C79.3688 12.1484 79.8431 11.8069 80.4533 11.5668C81.0676 11.3267 81.7865 11.2066 82.6098 11.2066C83.826 11.2066 84.783 11.4612 85.4809 11.9704C86.183 12.4795 86.5926 13.1729 86.7096 14.0504Z" fill="#1A1A1A"/>
<path d="M92.4693 21.0544C91.4788 21.0544 90.6262 20.8557 89.9116 20.4583C89.2011 20.0568 88.6536 19.4897 88.2691 18.757C87.8847 18.0202 87.6924 17.1488 87.6924 16.1429C87.6924 15.1619 87.8847 14.3009 88.2691 13.5599C88.6536 12.819 89.1948 12.2415 89.8928 11.8276C90.5949 11.4136 91.4182 11.2066 92.3627 11.2066C92.998 11.2066 93.5893 11.3081 94.1368 11.5109C94.6885 11.7096 95.1691 12.0097 95.5787 12.4112C95.9924 12.8127 96.3142 13.3178 96.5441 13.9263C96.7739 14.5306 96.8889 15.2385 96.8889 16.0498V16.7763H88.7581V15.137H94.375C94.375 14.7562 94.2915 14.4188 94.1243 14.1249C93.9571 13.831 93.7252 13.6013 93.4284 13.4357C93.1359 13.266 92.7953 13.1812 92.4066 13.1812C92.0012 13.1812 91.6418 13.2743 91.3284 13.4606C91.0191 13.6427 90.7767 13.889 90.6012 14.1995C90.4256 14.5058 90.3358 14.8473 90.3316 15.224V16.7825C90.3316 17.2544 90.4194 17.6621 90.5949 18.0057C90.7746 18.3492 91.0275 18.6142 91.3534 18.8004C91.6794 18.9867 92.066 19.0798 92.5132 19.0798C92.8099 19.0798 93.0816 19.0385 93.3281 18.9557C93.5747 18.8729 93.7858 18.7487 93.9613 18.5831C94.1368 18.4175 94.2706 18.2147 94.3625 17.9746L96.8324 18.1361C96.7071 18.7239 96.45 19.2371 96.0614 19.6759C95.6769 20.1106 95.1795 20.45 94.5694 20.6942C93.9634 20.9343 93.2634 21.0544 92.4693 21.0544Z" fill="#1A1A1A"/>
</g>
<defs>
<clipPath id="clip0_185_9203">
<rect width="96.8889" height="32" fill="white"/>
</clipPath>
</defs>
</svg>
