<svg width="47" height="47" viewBox="0 0 47 47" fill="none" xmlns="http://www.w3.org/2000/svg">
<g clip-path="url(#clip0_216_2243)">
<path d="M38.1112 10.8889V0H33.4446V2.33333H13.2224V0H8.55569V10.8889C8.54733 15.9327 11.123 20.6293 15.3806 23.3333C11.123 26.0373 8.54695 30.734 8.55569 35.7778V46.6667H13.2224V44.3333H33.4446V46.6667H38.1112V35.7778C38.12 30.734 35.544 26.0373 31.2863 23.3333C35.544 20.6293 38.12 15.9327 38.1112 10.8889ZM31.84 16.3333H14.8269C14.2139 15.3782 13.7669 14.3262 13.5045 13.2222H33.1624C32.9 14.3262 32.453 15.3782 31.84 16.3333ZM30.6126 17.8889C28.7126 19.8759 26.0827 21 23.3335 21C20.5843 21 17.9543 19.8759 16.0543 17.8889H30.6126ZM33.4446 10.8889C33.4446 11.1517 33.4252 11.4092 33.4051 11.6667H13.2603C13.2402 11.4092 13.2208 11.1517 13.2208 10.8889V8.55556H33.4446V10.8889ZM33.4446 3.88889V7H13.2224V3.88889H33.4446ZM11.6668 45.1111H10.1112V35.7778C10.1017 30.9641 12.718 26.5288 16.9354 24.2083C16.9924 24.2364 17.0512 24.2581 17.1082 24.2862C17.3038 24.3777 17.5005 24.4643 17.6984 24.546C17.8074 24.5919 17.9156 24.6375 18.0242 24.6796C18.2415 24.7643 18.4606 24.8407 18.6808 24.9128C18.7522 24.9364 18.8225 24.966 18.8939 24.9907C14.5254 26.7942 11.6729 31.0515 11.6668 35.7778V45.1111ZM33.4446 35.7778V38.1111H13.2224V35.7778C13.2224 35.515 13.2417 35.2575 13.2622 35H33.4066C33.4252 35.2575 33.4446 35.515 33.4446 35.7778ZM13.5045 33.4444C13.7669 32.3404 14.2139 31.2885 14.8269 30.3333H31.84C32.453 31.2885 32.9 32.3404 33.1624 33.4444H13.5045ZM16.0543 28.7778C17.9543 26.7908 20.5843 25.6667 23.3335 25.6667C26.0827 25.6667 28.7126 26.7908 30.6126 28.7778H16.0543ZM13.2224 42.7778V39.6667H33.4446V42.7778H13.2224ZM36.5557 35.7778V45.1111H35.0001V35.7778C34.9929 29.3376 29.7737 24.1183 23.3335 24.1111C22.8052 24.1111 22.2769 24.0803 21.7521 24.0184C21.304 23.9641 20.8592 23.8863 20.4191 23.7853C20.3507 23.7697 20.2816 23.7579 20.2129 23.7416C19.1958 23.4936 18.2118 23.1245 17.2825 22.6418L17.2715 22.6364C12.8676 20.3764 10.1021 15.8389 10.1112 10.8889V1.55556H11.6668V10.8889C11.674 17.3291 16.8933 22.5483 23.3335 22.5556C23.8621 22.5556 24.3904 22.5863 24.9156 22.6482C26.2129 22.8009 27.4798 23.1491 28.6731 23.6808C28.7912 23.734 28.9063 23.7936 29.0236 23.8498C29.141 23.9057 29.2663 23.9626 29.3855 24.0241C33.7947 26.2827 36.5652 30.8236 36.5557 35.7778ZM29.7315 22.4583C29.673 22.4295 29.6134 22.4078 29.5549 22.3805C29.3605 22.2897 29.166 22.2039 28.9678 22.1215C28.8603 22.077 28.7532 22.0315 28.6442 21.9893C28.4224 21.9031 28.1984 21.8245 27.9735 21.7497C27.9067 21.7273 27.8406 21.6992 27.773 21.6783C32.1427 19.8743 34.9952 15.6159 35.0001 10.8889V1.55556H36.5557V10.8889C36.5652 15.7025 33.9489 20.1379 29.7315 22.4583Z" fill="url(#paint0_linear_216_2243)"/>
</g>
<defs>
<linearGradient id="paint0_linear_216_2243" x1="28.0131" y1="41.9835" x2="-5.69081" y2="13.7857" gradientUnits="userSpaceOnUse">
<stop stop-color="#03B0B6"/>
<stop offset="1" stop-color="#B9DE35"/>
</linearGradient>
<clipPath id="clip0_216_2243">
<rect width="46.6667" height="46.6667" fill="white"/>
</clipPath>
</defs>
</svg>
