<svg width="40" height="40" viewBox="0 0 40 40" fill="none" xmlns="http://www.w3.org/2000/svg">
<path d="M0 20C0 8.95431 8.95431 0 20 0C31.0457 0 40 8.95431 40 20C40 31.0457 31.0457 40 20 40C8.95431 40 0 31.0457 0 20Z" fill="white"/>
<path d="M29 14H24.875V13.25C24.875 12.5538 24.5984 11.8861 24.1062 11.3938C23.6139 10.9016 22.9462 10.625 22.25 10.625H17.75C17.0538 10.625 16.3861 10.9016 15.8938 11.3938C15.4016 11.8861 15.125 12.5538 15.125 13.25V14H11C10.5027 14 10.0258 14.1975 9.67417 14.5492C9.32254 14.9008 9.125 15.3777 9.125 15.875V26C9.125 26.4973 9.32254 26.9742 9.67417 27.3258C10.0258 27.6775 10.5027 27.875 11 27.875H29C29.4973 27.875 29.9742 27.6775 30.3258 27.3258C30.6775 26.9742 30.875 26.4973 30.875 26V15.875C30.875 15.3777 30.6775 14.9008 30.3258 14.5492C29.9742 14.1975 29.4973 14 29 14ZM17.375 13.25C17.375 13.1505 17.4145 13.0552 17.4848 12.9848C17.5552 12.9145 17.6505 12.875 17.75 12.875H22.25C22.3495 12.875 22.4448 12.9145 22.5152 12.9848C22.5855 13.0552 22.625 13.1505 22.625 13.25V14H17.375V13.25ZM28.625 16.25V19.25H26.375V18.875C26.375 18.5766 26.2565 18.2905 26.0455 18.0795C25.8345 17.8685 25.5484 17.75 25.25 17.75C24.9516 17.75 24.6655 17.8685 24.4545 18.0795C24.2435 18.2905 24.125 18.5766 24.125 18.875V19.25H15.875V18.875C15.875 18.5766 15.7565 18.2905 15.5455 18.0795C15.3345 17.8685 15.0484 17.75 14.75 17.75C14.4516 17.75 14.1655 17.8685 13.9545 18.0795C13.7435 18.2905 13.625 18.5766 13.625 18.875V19.25H11.375V16.25H28.625ZM11.375 25.625V21.5H13.625V21.875C13.625 22.1734 13.7435 22.4595 13.9545 22.6705C14.1655 22.8815 14.4516 23 14.75 23C15.0484 23 15.3345 22.8815 15.5455 22.6705C15.7565 22.4595 15.875 22.1734 15.875 21.875V21.5H24.125V21.875C24.125 22.1734 24.2435 22.4595 24.4545 22.6705C24.6655 22.8815 24.9516 23 25.25 23C25.5484 23 25.8345 22.8815 26.0455 22.6705C26.2565 22.4595 26.375 22.1734 26.375 21.875V21.5H28.625V25.625H11.375Z" fill="#F84416"/>
<path d="M29 14H24.875V13.25C24.875 12.5538 24.5984 11.8861 24.1062 11.3938C23.6139 10.9016 22.9462 10.625 22.25 10.625H17.75C17.0538 10.625 16.3861 10.9016 15.8938 11.3938C15.4016 11.8861 15.125 12.5538 15.125 13.25V14H11C10.5027 14 10.0258 14.1975 9.67417 14.5492C9.32254 14.9008 9.125 15.3777 9.125 15.875V26C9.125 26.4973 9.32254 26.9742 9.67417 27.3258C10.0258 27.6775 10.5027 27.875 11 27.875H29C29.4973 27.875 29.9742 27.6775 30.3258 27.3258C30.6775 26.9742 30.875 26.4973 30.875 26V15.875C30.875 15.3777 30.6775 14.9008 30.3258 14.5492C29.9742 14.1975 29.4973 14 29 14ZM17.375 13.25C17.375 13.1505 17.4145 13.0552 17.4848 12.9848C17.5552 12.9145 17.6505 12.875 17.75 12.875H22.25C22.3495 12.875 22.4448 12.9145 22.5152 12.9848C22.5855 13.0552 22.625 13.1505 22.625 13.25V14H17.375V13.25ZM28.625 16.25V19.25H26.375V18.875C26.375 18.5766 26.2565 18.2905 26.0455 18.0795C25.8345 17.8685 25.5484 17.75 25.25 17.75C24.9516 17.75 24.6655 17.8685 24.4545 18.0795C24.2435 18.2905 24.125 18.5766 24.125 18.875V19.25H15.875V18.875C15.875 18.5766 15.7565 18.2905 15.5455 18.0795C15.3345 17.8685 15.0484 17.75 14.75 17.75C14.4516 17.75 14.1655 17.8685 13.9545 18.0795C13.7435 18.2905 13.625 18.5766 13.625 18.875V19.25H11.375V16.25H28.625ZM11.375 25.625V21.5H13.625V21.875C13.625 22.1734 13.7435 22.4595 13.9545 22.6705C14.1655 22.8815 14.4516 23 14.75 23C15.0484 23 15.3345 22.8815 15.5455 22.6705C15.7565 22.4595 15.875 22.1734 15.875 21.875V21.5H24.125V21.875C24.125 22.1734 24.2435 22.4595 24.4545 22.6705C24.6655 22.8815 24.9516 23 25.25 23C25.5484 23 25.8345 22.8815 26.0455 22.6705C26.2565 22.4595 26.375 22.1734 26.375 21.875V21.5H28.625V25.625H11.375Z" fill="url(#paint0_linear_150_9150)"/>
<defs>
<linearGradient id="paint0_linear_150_9150" x1="37.4" y1="31.4687" x2="-14.2721" y2="46.797" gradientUnits="userSpaceOnUse">
<stop stop-color="#03B0B6"/>
<stop offset="1" stop-color="#B9DE35"/>
</linearGradient>
</defs>
</svg>
