<svg width="129" height="61" viewBox="0 0 129 61" fill="none" xmlns="http://www.w3.org/2000/svg">
<path d="M29.8147 23.2922C21.4513 23.2922 14.6714 30.0699 14.6714 38.4306V51.4813H17.0266V38.4306C17.0266 31.4374 22.5121 25.725 29.4164 25.3592L31.4843 23.2922H29.8147Z" fill="#162230"/>
<path d="M13.7731 33.664C14.0734 32.6559 14.4669 31.6881 14.9428 30.769C12.3111 26.2963 7.44975 23.2925 1.88375 23.2925H0.213867L2.28175 25.3594C7.52495 25.6374 11.9472 29.0001 13.7728 33.6642L13.7731 33.664Z" fill="url(#paint0_linear_258_233)"/>
<path d="M3.78858 30.1965C3.09081 29.1741 2.64223 28.1004 2.42879 26.9838C2.3279 26.4568 2.27494 25.9207 2.28156 25.3746L0.213672 23.3074C0.0783551 23.9951 0.00871058 24.676 0.000766339 25.3484C-0.0251849 27.5164 0.607971 29.5916 1.89997 31.4846C4.52448 35.3305 9.08209 37.4893 13.0709 38.1887C13.0751 38.1894 13.0794 38.1905 13.0836 38.191C13.0953 37.4141 13.1556 36.6488 13.2703 35.9007C13.1037 35.8692 12.9366 35.8369 12.7685 35.7995C9.41443 35.0557 5.8133 33.1635 3.78858 30.1962V30.1965Z" fill="url(#paint1_linear_258_233)"/>
<path d="M31.4819 23.2902L29.1836 24.7334C29.0759 25.2209 28.925 25.7044 28.7255 26.1525C28.3028 27.102 27.6792 27.9643 26.844 28.7288C24.0302 31.4517 19.6484 31.9546 16.1658 31.943C15.8437 32.5907 15.5838 33.1449 15.3971 33.8709C15.3971 33.8709 16.9002 33.9078 16.9004 33.9078C20.6042 34.1171 25.119 33.1458 28.2606 30.2694C29.8071 28.8534 30.8037 27.1384 31.2318 25.2031C31.3644 24.6028 31.4595 23.9306 31.4819 23.2902Z" fill="#162230"/>
<path d="M15.849 2.52702C18.2961 4.4489 19.8807 7.09187 20.5207 9.93868C21.2132 9.65092 21.9279 9.40923 22.6606 9.21625C21.7955 5.85059 19.7787 2.76289 16.7123 0.607269L15.849 0L14.9855 0.607005C11.9198 2.76236 9.90299 5.84927 9.0376 9.21414C9.77059 9.40712 10.4853 9.64828 11.1778 9.93603C11.8181 7.09028 13.4024 4.44784 15.849 2.52676V2.52702Z" fill="url(#paint2_linear_258_233)"/>
<path d="M13.8083 52.3725H20.1554C20.5354 52.1566 21.3368 51.6161 21.5026 51.1808C21.7098 50.6368 20.9067 43.5642 20.4922 42.4244C20.0777 41.2845 15.8549 40.1187 15.3886 40.1187C15.0155 40.1187 13.7651 42.0876 13.1865 43.072V49.186C13.1865 49.4347 13.601 51.414 13.8083 52.3725Z" fill="white"/>
<path d="M22.7627 36.4514C24.3109 36.4514 25.6975 36.76 26.9219 37.3772C28.1464 37.9945 29.1129 38.8853 29.8213 40.0491C30.5296 41.2128 30.8837 42.6395 30.8838 44.3293C30.8838 46.8188 30.1099 48.7674 28.5615 50.1741C27.0638 51.5098 25.1307 52.178 22.7627 52.178C21.2045 52.1779 19.8132 51.8739 18.5889 51.2668C17.3745 50.6495 16.4125 49.7642 15.7041 48.6106C15.0463 47.5278 14.6977 46.0145 14.6572 44.0715L14.6416 42.3108C14.6416 40.9694 14.6661 39.7256 14.7148 38.5793L17.0205 38.3362C17.305 38.1635 17.8169 37.8623 18.373 37.5461C20.0105 36.8162 21.4738 36.4515 22.7627 36.4514ZM22.4443 38.2581C20.7847 38.3795 19.5142 39.0019 18.6338 40.1252C17.7637 41.2484 17.3182 42.6042 17.2979 44.1926V44.2542C17.2979 45.863 17.7388 47.2441 18.6191 48.3977C19.4995 49.5513 20.7793 50.1893 22.459 50.3108H23.1123C24.782 50.1893 26.0571 49.5513 26.9375 48.3977C27.8178 47.234 28.2578 45.8629 28.2578 44.2844C28.2578 42.6956 27.8124 41.3238 26.9219 40.1702C26.0415 39.0167 24.7663 38.3795 23.0967 38.2581H22.4443Z" fill="#162230"/>
<path d="M22.7627 36.4514C24.3109 36.4514 25.6975 36.76 26.9219 37.3772C28.1464 37.9945 29.1129 38.8853 29.8213 40.0491C30.5296 41.2128 30.8837 42.6395 30.8838 44.3293C30.8838 46.8188 30.1099 48.7674 28.5615 50.1741C27.0638 51.5098 25.1307 52.178 22.7627 52.178C21.2045 52.1779 19.8132 51.8739 18.5889 51.2668C17.3745 50.6495 16.4125 49.7642 15.7041 48.6106C15.0463 47.5278 14.6977 46.0145 14.6572 44.0715L14.6416 42.3108C14.6416 40.9694 14.6661 39.7256 14.7148 38.5793L17.0205 38.3362C17.305 38.1635 17.8169 37.8623 18.373 37.5461C20.0105 36.8162 21.4738 36.4515 22.7627 36.4514ZM22.4443 38.2581C20.7847 38.3795 19.5142 39.0019 18.6338 40.1252C17.7637 41.2484 17.3182 42.6042 17.2979 44.1926V44.2542C17.2979 45.863 17.7388 47.2441 18.6191 48.3977C19.4995 49.5513 20.7793 50.1893 22.459 50.3108H23.1123C24.782 50.1893 26.0571 49.5513 26.9375 48.3977C27.8178 47.234 28.2578 45.8629 28.2578 44.2844C28.2578 42.6956 27.8124 41.3238 26.9219 40.1702C26.0415 39.0167 24.7663 38.3795 23.0967 38.2581H22.4443Z" fill="#0BA360"/>
<path d="M22.7627 36.4514C24.3109 36.4514 25.6975 36.76 26.9219 37.3772C28.1464 37.9945 29.1129 38.8853 29.8213 40.0491C30.5296 41.2128 30.8837 42.6395 30.8838 44.3293C30.8838 46.8188 30.1099 48.7674 28.5615 50.1741C27.0638 51.5098 25.1307 52.178 22.7627 52.178C21.2045 52.1779 19.8132 51.8739 18.5889 51.2668C17.3745 50.6495 16.4125 49.7642 15.7041 48.6106C15.0463 47.5278 14.6977 46.0145 14.6572 44.0715L14.6416 42.3108C14.6416 40.9694 14.6661 39.7256 14.7148 38.5793L17.0205 38.3362C17.305 38.1635 17.8169 37.8623 18.373 37.5461C20.0105 36.8162 21.4738 36.4515 22.7627 36.4514ZM22.4443 38.2581C20.7847 38.3795 19.5142 39.0019 18.6338 40.1252C17.7637 41.2484 17.3182 42.6042 17.2979 44.1926V44.2542C17.2979 45.863 17.7388 47.2441 18.6191 48.3977C19.4995 49.5513 20.7793 50.1893 22.459 50.3108H23.1123C24.782 50.1893 26.0571 49.5513 26.9375 48.3977C27.8178 47.234 28.2578 45.8629 28.2578 44.2844C28.2578 42.6956 27.8124 41.3238 26.9219 40.1702C26.0415 39.0167 24.7663 38.3795 23.0967 38.2581H22.4443Z" fill="url(#paint3_linear_258_233)"/>
<path d="M22.7627 36.4514C24.3109 36.4514 25.6975 36.76 26.9219 37.3772C28.1464 37.9945 29.1129 38.8853 29.8213 40.0491C30.5296 41.2128 30.8837 42.6395 30.8838 44.3293C30.8838 46.8188 30.1099 48.7674 28.5615 50.1741C27.0638 51.5098 25.1307 52.178 22.7627 52.178C21.2045 52.1779 19.8132 51.8739 18.5889 51.2668C17.3745 50.6495 16.4125 49.7642 15.7041 48.6106C15.0463 47.5278 14.6977 46.0145 14.6572 44.0715L14.6416 42.3108C14.6416 40.9694 14.6661 39.7256 14.7148 38.5793L17.0205 38.3362C17.305 38.1635 17.8169 37.8623 18.373 37.5461C20.0105 36.8162 21.4738 36.4515 22.7627 36.4514ZM22.4443 38.2581C20.7847 38.3795 19.5142 39.0019 18.6338 40.1252C17.7637 41.2484 17.3182 42.6042 17.2979 44.1926V44.2542C17.2979 45.863 17.7388 47.2441 18.6191 48.3977C19.4995 49.5513 20.7793 50.1893 22.459 50.3108H23.1123C24.782 50.1893 26.0571 49.5513 26.9375 48.3977C27.8178 47.234 28.2578 45.8629 28.2578 44.2844C28.2578 42.6956 27.8124 41.3238 26.9219 40.1702C26.0415 39.0167 24.7663 38.3795 23.0967 38.2581H22.4443Z" fill="url(#paint4_linear_258_233)"/>
<path d="M22.7627 36.4514C24.3109 36.4514 25.6975 36.76 26.9219 37.3772C28.1464 37.9945 29.1129 38.8853 29.8213 40.0491C30.5296 41.2128 30.8837 42.6395 30.8838 44.3293C30.8838 46.8188 30.1099 48.7674 28.5615 50.1741C27.0638 51.5098 25.1307 52.178 22.7627 52.178C21.2045 52.1779 19.8132 51.8739 18.5889 51.2668C17.3745 50.6495 16.4125 49.7642 15.7041 48.6106C15.0463 47.5278 14.6977 46.0145 14.6572 44.0715L14.6416 42.3108C14.6416 40.9694 14.6661 39.7256 14.7148 38.5793L17.0205 38.3362C17.305 38.1635 17.8169 37.8623 18.373 37.5461C20.0105 36.8162 21.4738 36.4515 22.7627 36.4514ZM22.4443 38.2581C20.7847 38.3795 19.5142 39.0019 18.6338 40.1252C17.7637 41.2484 17.3182 42.6042 17.2979 44.1926V44.2542C17.2979 45.863 17.7388 47.2441 18.6191 48.3977C19.4995 49.5513 20.7793 50.1893 22.459 50.3108H23.1123C24.782 50.1893 26.0571 49.5513 26.9375 48.3977C27.8178 47.234 28.2578 45.8629 28.2578 44.2844C28.2578 42.6956 27.8124 41.3238 26.9219 40.1702C26.0415 39.0167 24.7663 38.3795 23.0967 38.2581H22.4443Z" fill="url(#paint5_linear_258_233)"/>
<path d="M22.7627 36.4514C24.3109 36.4514 25.6975 36.76 26.9219 37.3772C28.1464 37.9945 29.1129 38.8853 29.8213 40.0491C30.5296 41.2128 30.8837 42.6395 30.8838 44.3293C30.8838 46.8188 30.1099 48.7674 28.5615 50.1741C27.0638 51.5098 25.1307 52.178 22.7627 52.178C21.2045 52.1779 19.8132 51.8739 18.5889 51.2668C17.3745 50.6495 16.4125 49.7642 15.7041 48.6106C15.0463 47.5278 14.6977 46.0145 14.6572 44.0715L14.6416 42.3108C14.6416 40.9694 14.6661 39.7256 14.7148 38.5793L17.0205 38.3362C17.305 38.1635 17.8169 37.8623 18.373 37.5461C20.0105 36.8162 21.4738 36.4515 22.7627 36.4514ZM22.4443 38.2581C20.7847 38.3795 19.5142 39.0019 18.6338 40.1252C17.7637 41.2484 17.3182 42.6042 17.2979 44.1926V44.2542C17.2979 45.863 17.7388 47.2441 18.6191 48.3977C19.4995 49.5513 20.7793 50.1893 22.459 50.3108H23.1123C24.782 50.1893 26.0571 49.5513 26.9375 48.3977C27.8178 47.234 28.2578 45.8629 28.2578 44.2844C28.2578 42.6956 27.8124 41.3238 26.9219 40.1702C26.0415 39.0167 24.7663 38.3795 23.0967 38.2581H22.4443Z" fill="#162230"/>
<path d="M47.4062 52.0103H44.856V40.4888L35.1258 52.0103H32.5908V37.4984H35.141V49.0198L44.8712 37.4984H47.4062V52.0103ZM57.5773 52.6326C56.0087 52.6326 54.6122 52.324 53.3877 51.7067C52.1733 51.0894 51.2119 50.2039 50.5035 49.0502C49.8052 47.8965 49.4561 46.495 49.4561 44.8454C49.4561 42.2649 50.2505 40.2713 51.8393 38.8646C53.3472 37.549 55.2548 36.8912 57.5621 36.8912C59.1104 36.8912 60.4968 37.1999 61.7213 37.8172C62.9458 38.4345 63.9123 39.3251 64.6207 40.4888C65.3392 41.6526 65.6984 43.0795 65.6984 44.7695C65.6984 47.259 64.9192 49.2071 63.3607 50.6137C61.8529 51.9597 59.9251 52.6326 57.5773 52.6326ZM57.9112 50.7807C59.581 50.6593 60.8561 50.0217 61.7365 48.8681C62.6169 47.7144 63.0571 46.3432 63.0571 44.7543C63.0571 43.1655 62.6169 41.7943 61.7365 40.6406C60.8561 39.487 59.5709 38.8494 57.8809 38.728H57.2585C55.5786 38.8494 54.2984 39.487 53.418 40.6406C52.5376 41.7943 52.0974 43.1655 52.0974 44.7543C52.0974 46.3432 52.5376 47.7144 53.418 48.8681C54.2984 50.0217 55.5786 50.6593 57.2585 50.7807H57.9112ZM85.5845 52.0103H83.0343V40.7924L77.3874 48.9288H75.4444L69.8127 40.7924V52.0103H67.2625V37.4984H70.1315L76.4159 46.667L82.7155 37.4984H85.5845V52.0103ZM95.8618 52.6326C95.0724 52.6326 94.2831 52.5517 93.4937 52.3897C92.7145 52.2379 92.0162 52.0052 91.3989 51.6915C90.1845 51.0843 89.2232 50.1988 88.5148 49.035C87.8165 47.8712 87.4674 46.4747 87.4674 44.8454C87.4674 44.3496 87.5331 43.7474 87.6647 43.039C87.7963 42.3205 87.9481 41.7488 88.1201 41.3237C88.5451 40.332 89.127 39.5123 89.8658 38.8646C90.6146 38.2068 91.4799 37.7109 92.4615 37.377C93.4431 37.043 94.4804 36.8761 95.5733 36.8761C97.1217 36.8761 98.5081 37.1898 99.7326 37.8172C100.957 38.4345 101.924 39.3251 102.632 40.4888C103.35 41.6425 103.71 43.0694 103.71 44.7695V44.8151L90.1997 46.1509C90.3009 47.4563 90.8524 48.5341 91.8543 49.3842C92.8663 50.2342 94.0098 50.6997 95.2849 50.7807H96.4689C97.4 50.72 98.2601 50.467 99.0495 50.0217C99.849 49.5764 100.375 49.1666 100.628 48.7922L103.011 49.7181C102.333 50.7503 101.175 51.5498 99.5352 52.1165C99.0293 52.2885 98.4372 52.415 97.7592 52.496C97.0812 52.5871 96.4487 52.6326 95.8618 52.6326ZM90.0783 44.3293L100.992 43.2516C100.79 41.6526 100.203 40.5141 99.2317 39.8361C98.2601 39.148 97.152 38.7634 95.9073 38.6825H95.2697C93.8226 38.7837 92.593 39.3301 91.5811 40.3219C90.5792 41.3035 90.0783 42.6393 90.0783 44.3293ZM123.687 56.0481H121.137V52.0103H106.488V56.0481H103.938V50.219H106.503C108.011 46.8997 108.765 43.5855 108.765 40.2763V37.4984H120.803V50.219H123.687V56.0481ZM118.268 50.219V39.4566H111.346V40.4433C111.346 43.5602 110.597 46.8188 109.099 50.219H118.268Z" fill="#162230"/>
<path d="M124.759 36.6999V34.6631H125.736C125.839 34.6631 125.938 34.6879 126.034 34.7376C126.131 34.7854 126.211 34.8572 126.274 34.9529C126.338 35.0467 126.371 35.1626 126.371 35.3006C126.371 35.4386 126.338 35.5582 126.271 35.6594C126.207 35.7588 126.124 35.8351 126.023 35.8885C125.924 35.9418 125.82 35.9685 125.714 35.9685H124.958V35.6898H125.62C125.714 35.6898 125.797 35.6567 125.871 35.5904C125.947 35.5223 125.984 35.4257 125.984 35.3006C125.984 35.1718 125.947 35.0798 125.871 35.0246C125.797 34.9694 125.717 34.9418 125.628 34.9418H125.115V36.6999H124.759ZM125.946 35.7532L126.453 36.6999H126.056L125.562 35.7532H125.946ZM125.507 37.9143C125.201 37.9143 124.915 37.8573 124.648 37.7432C124.382 37.6291 124.147 37.4709 123.945 37.2685C123.742 37.0661 123.584 36.8315 123.47 36.5647C123.356 36.2979 123.299 36.0118 123.299 35.7063C123.299 35.4009 123.356 35.1148 123.47 34.848C123.584 34.5812 123.742 34.3466 123.945 34.1442C124.147 33.9418 124.382 33.7836 124.648 33.6695C124.915 33.5554 125.201 33.4984 125.507 33.4984C125.812 33.4984 126.098 33.5554 126.365 33.6695C126.632 33.7836 126.866 33.9418 127.069 34.1442C127.271 34.3466 127.43 34.5812 127.544 34.848C127.658 35.1148 127.715 35.4009 127.715 35.7063C127.715 36.0118 127.658 36.2979 127.544 36.5647C127.43 36.8315 127.271 37.0661 127.069 37.2685C126.866 37.4709 126.632 37.6291 126.365 37.7432C126.098 37.8573 125.812 37.9143 125.507 37.9143ZM125.507 37.5031C125.838 37.5031 126.139 37.4221 126.409 37.2602C126.682 37.0983 126.899 36.8821 127.061 36.6116C127.223 36.3393 127.303 36.0375 127.303 35.7063C127.303 35.3751 127.223 35.0743 127.061 34.8038C126.899 34.5315 126.682 34.3144 126.409 34.1525C126.139 33.9906 125.838 33.9096 125.507 33.9096C125.176 33.9096 124.874 33.9906 124.601 34.1525C124.331 34.3144 124.115 34.5315 123.953 34.8038C123.791 35.0743 123.71 35.3751 123.71 35.7063C123.71 36.0375 123.791 36.3393 123.953 36.6116C124.115 36.8821 124.331 37.0983 124.601 37.2602C124.874 37.4221 125.176 37.5031 125.507 37.5031Z" fill="#162230"/>
<path d="M27.5567 12.3424C27.6704 12.8771 27.7453 13.4116 27.7911 13.9439C28.0474 16.9239 27.2655 19.8287 25.692 22.2286C26.6116 21.9949 27.5626 21.8416 28.5352 21.7675C29.8788 18.9043 30.3362 15.6096 29.6583 12.3125C29.5974 12.0154 29.5298 11.7187 29.4501 11.4219L29.1763 10.4025L28.1242 10.3151C19.7894 9.62369 12.4722 15.8179 11.7805 24.1497C11.7586 24.4134 11.7506 24.6747 11.7427 24.9362C12.6293 25.5845 13.4502 26.3167 14.1929 27.1231C14.0751 26.2193 14.0494 25.2899 14.1278 24.3445C14.7061 17.3752 20.6455 12.1362 27.5565 12.3421L27.5567 12.3424Z" fill="url(#paint6_linear_258_233)"/>
<path d="M6.01266 22.2299C4.43705 19.8299 3.65349 16.9249 3.90876 13.9439C3.95431 13.4115 4.02925 12.877 4.14259 12.3423C7.62005 12.2372 10.8512 13.5121 13.2782 15.6915C13.7212 15.0761 14.2042 14.4921 14.7238 13.9428C11.7524 11.3795 7.79402 9.96378 3.57378 10.3156L2.5217 10.4032L2.24841 11.4227C2.16897 11.7194 2.10171 12.0164 2.0408 12.3134C1.36422 15.6108 1.82287 18.9053 3.16783 21.7679C4.14126 21.8423 5.09245 21.9959 6.01266 22.2302V22.2299Z" fill="url(#paint7_linear_258_233)"/>
<defs>
<linearGradient id="paint0_linear_258_233" x1="14.2747" y1="33.6787" x2="-0.232053" y2="19.1415" gradientUnits="userSpaceOnUse">
<stop stop-color="#03B0B6"/>
<stop offset="1" stop-color="#B9DE35"/>
</linearGradient>
<linearGradient id="paint1_linear_258_233" x1="12.0466" y1="38.1865" x2="15.4292" y2="22.4534" gradientUnits="userSpaceOnUse">
<stop stop-color="#03B0B6"/>
<stop offset="1" stop-color="#B9DE35"/>
</linearGradient>
<linearGradient id="paint2_linear_258_233" x1="13.9378" y1="29.4819" x2="21.1581" y2="-0.799413" gradientUnits="userSpaceOnUse">
<stop stop-color="#03B0B6"/>
<stop offset="1" stop-color="#B9DE35"/>
</linearGradient>
<linearGradient id="paint3_linear_258_233" x1="27.7977" y1="50.4817" x2="12.1129" y2="35.8945" gradientUnits="userSpaceOnUse">
<stop stop-color="#069F91"/>
<stop offset="0.73573" stop-color="#53D342"/>
<stop offset="1" stop-color="#A3E21B"/>
</linearGradient>
<linearGradient id="paint4_linear_258_233" x1="23.834" y1="29.5485" x2="19.0928" y2="52.1915" gradientUnits="userSpaceOnUse">
<stop stop-color="#01DBFF"/>
<stop offset="0.192308" stop-color="#059BA5"/>
<stop offset="0.423077" stop-color="#0495BD"/>
<stop offset="1" stop-color="#0288FA"/>
</linearGradient>
<linearGradient id="paint5_linear_258_233" x1="25.9324" y1="52.1915" x2="20.9468" y2="24.6063" gradientUnits="userSpaceOnUse">
<stop stop-color="#069F91"/>
<stop offset="0.649125" stop-color="#53D342"/>
<stop offset="1" stop-color="#A3E21B"/>
</linearGradient>
<linearGradient id="paint6_linear_258_233" x1="18.9638" y1="29.2487" x2="32.9213" y2="11.8997" gradientUnits="userSpaceOnUse">
<stop stop-color="#03B0B6"/>
<stop offset="1" stop-color="#B9DE35"/>
</linearGradient>
<linearGradient id="paint7_linear_258_233" x1="11.451" y1="29.8963" x2="10.1169" y2="8.61087" gradientUnits="userSpaceOnUse">
<stop stop-color="#03B0B6"/>
<stop offset="1" stop-color="#B9DE35"/>
</linearGradient>
</defs>
</svg>
