<svg width="25" height="30" viewBox="0 0 25 30" fill="none" xmlns="http://www.w3.org/2000/svg">
<path d="M24.1209 9.52894V27.0465C24.1209 28.6777 22.7986 30 21.1674 30H2.9535C1.32231 30 2.21549e-09 28.6777 2.21549e-09 27.0465V2.9535C-6.24978e-05 1.32231 1.32225 0 2.9535 0H15.1528L24.1209 9.52894Z" fill="#E5252A"/>
<path d="M24.121 9.52894H17.1218C16.0344 9.52894 15.1528 8.64738 15.1528 7.55994V0L24.121 9.52894Z" fill="#ED676A"/>
<path d="M6.29408 21.0679V23.0638H4.87695V17.1837H7.22283C7.67277 17.1837 8.07083 17.2664 8.41695 17.4318C8.76308 17.5972 9.03033 17.8337 9.2207 18.1394C9.40914 18.4452 9.50527 18.7913 9.50527 19.1797C9.50527 19.7527 9.29952 20.2103 8.88802 20.5545C8.47845 20.8968 7.91502 21.0679 7.19783 21.0679H6.29408ZM6.29408 19.9738H7.22283C7.49783 19.9738 7.70739 19.9065 7.85158 19.768C7.99577 19.6315 8.06695 19.4373 8.06695 19.1873C8.06695 18.9123 7.99195 18.6932 7.84389 18.5278C7.69583 18.3643 7.49395 18.2817 7.2382 18.2778H6.29408V19.9738Z" fill="white"/>
<path d="M10.259 23.0638V17.1837H12.153C12.6722 17.1837 13.1395 17.301 13.5548 17.5375C13.9682 17.7721 14.2932 18.1048 14.5258 18.5355C14.7585 18.9643 14.8758 19.445 14.8777 19.9777V20.2488C14.8777 20.7872 14.7643 21.2698 14.5373 21.6967C14.3105 22.1236 13.9893 22.4563 13.5759 22.6985C13.1625 22.9389 12.701 23.06 12.1933 23.0639H10.259V23.0638ZM11.6762 18.2778V21.9736H12.1685C12.5761 21.9736 12.8876 21.8294 13.1049 21.539C13.3241 21.2506 13.4337 20.8199 13.4337 20.2488V19.995C13.4337 19.4258 13.3241 18.9989 13.1049 18.7105C12.8876 18.422 12.5703 18.2778 12.1531 18.2778H11.6762Z" fill="white"/>
<path d="M19.3101 20.7218H17.0238V23.0638H15.6067V17.1837H19.5389V18.2778H17.0238V19.6315H19.3101V20.7218Z" fill="white"/>
</svg>
