<svg width="97" height="32" fill="none" xmlns="http://www.w3.org/2000/svg"><g clip-path="url(#clip0_185_9203)"><path fill-rule="evenodd" clip-rule="evenodd" d="M6.842 2.878c-1.144.8-2.18 1.747-3.078 2.812 3.672-.34 8.336.216 13.752 2.923 5.782 2.892 10.439 2.99 13.68 2.364a15.901 15.901 0 00-1.103-2.56c-3.71.392-8.466-.126-14.009-2.897-3.52-1.76-6.622-2.485-9.242-2.642zm21.084 2.455A15.96 15.96 0 0016 0c-1.392 0-2.742.178-4.03.512 1.744.475 3.596 1.171 5.545 2.146 4.059 2.029 7.562 2.682 10.41 2.675zm3.963 8.77c-3.915.773-9.322.614-15.805-2.627-6.06-3.03-10.884-2.993-14.137-2.27-.168.038-.332.077-.492.118a15.86 15.86 0 00-1.01 2.912c.26-.07.53-.136.808-.198 3.947-.877 9.523-.839 16.262 2.53 6.061 3.031 10.885 2.993 14.138 2.27.111-.025.221-.05.33-.077a16.158 16.158 0 00-.094-2.659zm-.43 6.035c-3.876.678-9.125.417-15.375-2.707-6.06-3.03-10.884-2.992-14.137-2.27-.722.161-1.372.357-1.945.563L0 16c0 8.837 7.163 16 16 16 7.406 0 13.636-5.031 15.46-11.862z" fill="#3B82F6"/><path d="M50.665 12.604h-2.746a2.644 2.644 0 00-.307-.938 2.39 2.39 0 00-.596-.708 2.628 2.628 0 00-.84-.447 3.24 3.24 0 00-1.022-.155c-.664 0-1.243.164-1.736.49-.493.323-.876.795-1.147 1.416-.272.617-.408 1.366-.408 2.248 0 .906.136 1.668.408 2.285.275.617.66 1.082 1.153 1.397.493.314 1.064.472 1.712.472.363 0 .7-.048 1.009-.143.313-.095.591-.234.833-.416a2.38 2.38 0 00.602-.677c.163-.265.276-.567.339-.906l2.746.012a4.885 4.885 0 01-.533 1.689 5.082 5.082 0 01-1.135 1.447 5.35 5.35 0 01-1.693 1.006c-.651.244-1.39.366-2.212.366-1.145 0-2.17-.257-3.072-.77-.899-.513-1.61-1.256-2.132-2.23-.518-.972-.777-2.15-.777-3.532 0-1.387.263-2.566.79-3.54.526-.972 1.241-1.713 2.144-2.222.903-.513 1.918-.77 3.047-.77.744 0 1.433.103 2.068.31.64.207 1.206.51 1.7.907.492.393.894.875 1.203 1.447.313.57.514 1.225.602 1.962zM53.8 24.445a5.34 5.34 0 01-.952-.081 3.489 3.489 0 01-.727-.193l.601-1.974c.314.095.596.147.847.155.255.008.474-.05.658-.174.188-.124.34-.335.458-.633l.156-.404-3.454-9.81h2.809l1.993 7.004h.1l2.013-7.004h2.827l-3.742 10.568c-.18.513-.425.96-.734 1.341-.305.385-.692.68-1.16.888-.468.211-1.032.317-1.692.317zM67.144 11.33v1.988h-5.943V11.33h5.943zm-4.582 9.538V10.642c0-.692.136-1.265.407-1.72a2.61 2.61 0 011.128-1.025c.477-.228 1.018-.341 1.624-.341.41 0 .784.03 1.122.093.343.062.598.118.765.167l-.476 1.987a3.368 3.368 0 00-.389-.093 2.448 2.448 0 00-.464-.043c-.393 0-.666.09-.821.273-.155.178-.232.428-.232.751v10.177h-2.664zm11.858-4.061v-5.476h2.671v9.537h-2.563v-1.732h-.1a2.82 2.82 0 01-1.085 1.347c-.502.34-1.114.51-1.837.51-.644 0-1.21-.146-1.699-.435a3 3 0 01-1.147-1.236c-.272-.534-.41-1.174-.414-1.919v-6.072h2.67v5.6c.005.563.157 1.008.458 1.335.301.328.705.491 1.21.491.322 0 .623-.073.903-.217.28-.15.506-.369.677-.659.175-.29.261-.647.257-1.074zm12.29-2.757l-2.445.15a1.247 1.247 0 00-.27-.56 1.43 1.43 0 00-.545-.403 1.87 1.87 0 00-.796-.155c-.414 0-.763.087-1.047.26-.284.17-.427.398-.427.684 0 .227.092.42.276.577.184.157.5.284.947.379l1.743.348c.936.19 1.634.496 2.094.918.46.423.689.977.689 1.665a2.58 2.58 0 01-.558 1.645c-.368.472-.873.84-1.517 1.105-.64.261-1.377.391-2.213.391-1.275 0-2.29-.262-3.047-.788a3.068 3.068 0 01-1.322-2.161l2.626-.137c.08.385.272.68.577.882.305.199.696.298 1.172.298.468 0 .845-.089 1.129-.267.288-.182.434-.416.439-.701a.728.728 0 00-.308-.59c-.2-.158-.51-.278-.927-.36l-1.668-.33c-.94-.186-1.64-.509-2.1-.968-.456-.46-.683-1.045-.683-1.757 0-.613.167-1.14.501-1.584.339-.443.813-.784 1.423-1.024.615-.24 1.334-.36 2.157-.36 1.216 0 2.173.254 2.87.763.703.51 1.113 1.203 1.23 2.08zm5.76 7.004c-.991 0-1.844-.198-2.558-.596a4.1 4.1 0 01-1.643-1.701c-.384-.737-.577-1.608-.577-2.614 0-.981.193-1.842.577-2.583a4.239 4.239 0 011.624-1.732c.702-.414 1.525-.621 2.47-.621.635 0 1.226.101 1.774.304a3.941 3.941 0 011.442.9c.413.402.735.907.965 1.515.23.605.345 1.313.345 2.124v.726h-8.13v-1.639h5.616c0-.38-.084-.718-.25-1.012a1.788 1.788 0 00-.697-.69 2 2 0 00-1.021-.254 2.07 2.07 0 00-1.079.28 1.968 1.968 0 00-.727.739 2.07 2.07 0 00-.27 1.024v1.558c0 .472.088.88.264 1.224.18.343.433.608.758.794.326.187.713.28 1.16.28.297 0 .569-.041.815-.124a1.618 1.618 0 001.034-.981l2.47.161a3.328 3.328 0 01-.77 1.54c-.385.435-.882.774-1.493 1.018-.606.24-1.306.36-2.1.36z" fill="#1A1A1A"/></g><defs><clipPath id="clip0_185_9203"><path fill="#fff" d="M0 0h96.889v32H0z"/></clipPath></defs></svg>