<svg width="25" height="30" fill="none" xmlns="http://www.w3.org/2000/svg"><path d="M24.12 9.529v17.518A2.953 2.953 0 0121.168 30H2.953A2.953 2.953 0 010 27.047V2.953A2.953 2.953 0 012.954 0h12.199l8.968 9.529z" fill="#E5252A"/><path d="M24.121 9.529h-7a1.969 1.969 0 01-1.968-1.97V0l8.968 9.529z" fill="#ED676A"/><path d="M6.294 21.068v1.996H4.877v-5.88h2.346c.45 0 .848.082 1.194.248.346.165.613.402.804.707.188.306.284.652.284 1.04 0 .574-.205 1.031-.617 1.376-.41.342-.973.513-1.69.513h-.904zm0-1.094h.929c.275 0 .484-.067.629-.206.144-.137.215-.33.215-.58 0-.276-.075-.495-.223-.66-.148-.164-.35-.246-.606-.25h-.944v1.696zm3.965 3.09v-5.88h1.894c.52 0 .986.117 1.402.354.413.234.738.567.97.997.233.43.35.91.353 1.443v.27c0 .54-.114 1.022-.34 1.449-.228.427-.549.76-.962 1.002-.414.24-.875.361-1.383.365H10.26zm1.417-4.786v3.696h.492c.408 0 .72-.145.937-.435.22-.288.329-.72.329-1.29v-.254c0-.57-.11-.996-.33-1.285-.216-.288-.534-.432-.95-.432h-.478zm7.634 2.444h-2.286v2.342h-1.417v-5.88h3.932v1.094h-2.515v1.354h2.286v1.09z" fill="#fff"/></svg>